# xmcd CD database file
#
# Track frame offsets:
#	150
#	26830
#	46262
#	64640
#	90642
#	113477
#	136672
#	158927
#	178255
#	199697
#
# Disc length: 2928 seconds
#
# Revision: 2
# Processed by: cddbd v1.4PL0 Copyright (c) Steve Scherf et al.
# Submitted via: CDex 1.50beta10
#
DISCID=7e0b6e0a
DTITLE=Mike Henderson and The Bluebloods - First Blood
DYEAR=1996
DGENRE=Blues
TTITLE0=When I Get Drunk
TTITLE1=So Sad To Be Lonesom
TTITLE2=Hip Shakin'
TTITLE3=Pony Blues
TTITLE4=Bloody Murder
TTITLE5=Pay Bo Diddley
TTITLE6=When The Welfare Turns Its Back On You
TTITLE7=Give Me Back My Wig
TTITLE8=How Many More Years
TTITLE9=Mean Mistreater
EXTD=YEAR: 1996
EXTT0=
EXTT1=
EXTT2=
EXTT3=
EXTT4=
EXTT5=
EXTT6=
EXTT7=
EXTT8=
EXTT9=
PLAYORDER=
